# xmcd CD database file
#
# Track frame offsets:
#	150
#	20679
#	36625
#	61268
#
# Disc length: 1088 seconds
#
# Revision: 0
# Processed by: cddbd v1.5.1PL2 Copyright (c) Steve Scherf et al.
# Submitted via: CDex 1.51
#
DISCID=33043e04
DTITLE=高橋瞳 - 青空のナミダ
DYEAR=2005
DGENRE=J-Pop
TTITLE0=青空のナミダ
TTITLE1=もうひとつの夜明け
TTITLE2=My Answer
TTITLE3=青空のナミダ -Instrumental-
EXTD=YEAR: 2005
EXTT0=
EXTT1=
EXTT2=
EXTT3=
PLAYORDER=
